HIERARCHY
ROOT Hips
{
	OFFSET -0.001795 -0.223333 0.028219
	CHANNELS 6 Xposition Yposition Zposition Zrotation Yrotation Xrotation 
	JOINT LeftUpLeg
	{
		OFFSET 0.069520 -0.091406 -0.006815
		CHANNELS 3 Zrotation Yrotation Xrotation
		JOINT LeftLeg
		{
			OFFSET 0.034277 -0.375199 -0.004496
			CHANNELS 3 Zrotation Yrotation Xrotation
			JOINT LeftFoot
			{
				OFFSET -0.013596 -0.397961 -0.043693
				CHANNELS 3 Zrotation Yrotation Xrotation
				JOINT LeftToe
				{
					OFFSET 0.026358 -0.055791 0.119288
					CHANNELS 3 Zrotation Yrotation Xrotation
					End Site
					{
						OFFSET 0.000000 0.000000 0.000000
					}
				}
			}
		}
	}
	JOINT RightUpLeg
	{
		OFFSET -0.067670 -0.090522 -0.004320
		CHANNELS 3 Zrotation Yrotation Xrotation
		JOINT RightLeg
		{
			OFFSET -0.038290 -0.382569 -0.008850
			CHANNELS 3 Zrotation Yrotation Xrotation
			JOINT RightFoot
			{
				OFFSET 0.015774 -0.398415 -0.042312
				CHANNELS 3 Zrotation Yrotation Xrotation
				JOINT RightToe
				{
					OFFSET -0.025372 -0.048144 0.123348
					CHANNELS 3 Zrotation Yrotation Xrotation
					End Site
					{
						OFFSET 0.000000 0.000000 0.000000
					}
				}
			}
		}
	}
	JOINT Spine
	{
		OFFSET -0.002533 0.108963 -0.026696
		CHANNELS 3 Zrotation Yrotation Xrotation
		JOINT Spine1
		{
			OFFSET 0.005487 0.135180 0.001092
			CHANNELS 3 Zrotation Yrotation Xrotation
			JOINT Spine2
			{
				OFFSET 0.001457 0.052922 0.025425
				CHANNELS 3 Zrotation Yrotation Xrotation
				JOINT Neck
				{
					OFFSET -0.002778 0.213870 -0.042857
					CHANNELS 3 Zrotation Yrotation Xrotation
					JOINT Head
					{
						OFFSET 0.005152 0.064970 0.051349
						CHANNELS 3 Zrotation Yrotation Xrotation
						End Site
						{
							OFFSET 0.000000 0.000000 0.000000
						}
					}
				}
				JOINT LeftShoulder
				{
					OFFSET 0.078845 0.121749 -0.034090
					CHANNELS 3 Zrotation Yrotation Xrotation
					JOINT LeftArm
					{
						OFFSET 0.090977 0.030469 -0.008868
						CHANNELS 3 Zrotation Yrotation Xrotation
						JOINT LeftForeArm
						{
							OFFSET 0.259612 -0.012772 -0.027456
							CHANNELS 3 Zrotation Yrotation Xrotation
							JOINT LeftHand
							{
								OFFSET 0.249234 0.008986 -0.001171
								CHANNELS 3 Zrotation Yrotation Xrotation
								End Site
								{
									OFFSET 0.000000 0.000000 0.000000
								}
							}
						}
					}
				}
				JOINT RightShoulder
				{
					OFFSET -0.081759 0.118833 -0.038615
					CHANNELS 3 Zrotation Yrotation Xrotation
					JOINT RightArm
					{
						OFFSET -0.096012 0.032551 -0.009143
						CHANNELS 3 Zrotation Yrotation Xrotation
						JOINT RightForeArm
						{
							OFFSET -0.253742 -0.013329 -0.021401
							CHANNELS 3 Zrotation Yrotation Xrotation
							JOINT RightHand
							{
								OFFSET -0.255298 0.007772 -0.005559
								CHANNELS 3 Zrotation Yrotation Xrotation
								End Site
								{
									OFFSET 0.000000 0.000000 0.000000
								}
							}
						}
					}
				}
			}
		}
	}
}
MOTION
Frames: 10
Frame Time: 0.050000
-0.059364 0.563773 -0.114297 -5.055730 -6.347973 26.546770 6.200487 6.305839 64.864391 4.168660 6.324187 -70.471413 -29.243621 10.108511 97.765215 0.000000 0.000000 0.000000 -24.027909 11.297829 54.935484 13.203710 3.974941 -72.477968 13.238444 -14.743794 107.202999 0.000000 0.000000 0.000000 -2.686193 2.016672 -35.694592 7.104054 4.635882 -73.289928 -0.737627 0.796033 88.062792 -7.929283 2.517158 -114.770146 0.000000 0.000000 0.000000 -17.776296 16.926370 -6.885683 -45.879083 -4.838016 -19.192472 115.727220 21.671704 61.511116 0.000000 0.000000 0.000000 30.810760 -6.888672 -1.720936 52.689203 25.354243 -10.722336 -23.844835 -65.678953 27.988314 0.000000 0.000000 0.000000 
-0.057495 0.554654 -0.113784 -5.457124 -6.214620 26.778079 6.559704 6.018484 64.818105 3.089482 5.508960 -68.401647 -30.616084 8.877335 95.650243 0.000000 0.000000 0.000000 -24.062549 11.248619 54.618426 13.075942 3.814756 -71.376592 14.869895 -13.988591 105.696097 0.000000 0.000000 0.000000 -1.354137 2.496772 -38.435258 6.688309 4.049163 -69.666195 0.285778 1.192843 86.187346 -13.747961 1.725251 -114.689668 0.000000 0.000000 0.000000 -20.637074 16.275987 -6.455542 -43.728543 -7.970872 -18.145767 105.547860 25.595819 57.623044 0.000000 0.000000 0.000000 32.459673 -6.956880 -1.414549 49.726635 24.869416 -11.178219 -21.609586 -62.141978 24.021142 0.000000 0.000000 0.000000 
-0.055741 0.546560 -0.113605 -5.152468 -5.439299 25.870244 8.019062 4.658047 65.539829 0.715797 4.063809 -67.289839 -26.653688 10.566642 96.886921 0.000000 0.000000 0.000000 -23.936485 10.860644 55.221090 12.457327 3.297945 -69.871311 15.316110 -13.845777 105.583888 0.000000 0.000000 0.000000 -1.321027 2.334071 -38.249660 6.048029 3.657292 -69.076918 0.517677 0.992984 86.367289 -14.891859 1.397968 -116.145484 0.000000 0.000000 0.000000 -23.824393 15.066328 -5.339072 -41.186506 -9.397996 -18.018231 94.645383 30.782302 53.899061 0.000000 0.000000 0.000000 33.872063 -6.615587 -0.956041 47.000324 25.264687 -11.538525 -18.027154 -59.870463 20.082989 0.000000 0.000000 0.000000 
-0.054384 0.540452 -0.114197 -4.780308 -4.933104 25.723034 8.987137 3.735378 65.821466 -2.219052 2.474495 -66.752923 -23.897797 11.740571 98.111550 0.000000 0.000000 0.000000 -23.144928 10.336642 56.658908 10.248109 2.081320 -70.906844 18.136954 -13.001663 104.896156 0.000000 0.000000 0.000000 -1.215549 2.330080 -39.167308 4.819291 3.308408 -69.222584 1.332151 0.515136 87.485289 -20.131052 0.525045 -118.243870 0.000000 0.000000 0.000000 -25.692498 15.224115 -5.302940 -40.608823 -9.643866 -18.568461 87.967099 32.575706 50.903306 0.000000 0.000000 0.000000 35.066422 -6.614274 -0.722350 45.466573 25.505309 -12.115968 -17.496263 -58.894421 19.376467 0.000000 0.000000 0.000000 
-0.053063 0.535750 -0.115628 -4.328999 -3.643386 25.107519 10.481218 2.009025 65.844852 -5.171965 0.856958 -66.277421 -20.656726 13.319488 100.712878 0.000000 0.000000 0.000000 -22.036113 9.183696 58.233319 7.692246 0.543467 -70.735447 24.334647 -10.645543 102.609925 0.000000 0.000000 0.000000 -1.859723 1.974393 -39.717888 2.906423 2.734712 -71.060680 2.690014 -1.114357 90.946481 -24.107455 -0.510625 -121.081583 0.000000 0.000000 0.000000 -27.366654 15.020115 -4.417244 -40.917552 -12.002335 -19.902369 88.405636 34.381541 55.964492 0.000000 0.000000 0.000000 36.168660 -7.481729 -0.836148 44.287479 27.661411 -13.191492 -19.176398 -59.365281 21.799126 0.000000 0.000000 0.000000 
-0.051689 0.533423 -0.117745 -4.036139 -2.941231 24.514236 11.735187 0.735639 65.772577 -8.556904 -0.887394 -66.099711 -15.668102 15.300396 104.346901 0.000000 0.000000 0.000000 -21.353827 8.527307 59.615190 5.755030 -0.584790 -71.367651 28.466760 -8.987643 101.403032 0.000000 0.000000 0.000000 -2.059250 1.768630 -39.410745 2.122276 2.563982 -73.540732 3.221524 -0.884645 93.634933 -29.178725 -1.679478 -122.785639 0.000000 0.000000 0.000000 -28.629034 15.337063 -4.676754 -42.232594 -12.501383 -21.258004 92.518726 36.169884 63.826943 0.000000 0.000000 0.000000 36.880627 -7.287844 0.129293 42.878787 29.714634 -13.717336 -18.603418 -60.845561 22.771065 0.000000 0.000000 0.000000 
-0.050567 0.533641 -0.119469 -3.516662 -1.564383 24.522946 12.665584 -0.643061 65.694351 -10.486023 -2.063498 -67.833232 -11.966650 16.413307 106.857216 0.000000 0.000000 0.000000 -20.301942 7.310651 61.513908 4.268225 -1.632642 -73.752913 29.794589 -8.224242 100.555405 0.000000 0.000000 0.000000 -3.602654 1.150828 -39.464579 2.010550 2.251715 -77.595066 3.100951 -1.969159 97.514357 -30.731778 -1.815598 -122.816611 0.000000 0.000000 0.000000 -28.017595 16.036302 -4.831086 -44.509951 -11.565024 -23.251280 98.863190 37.855817 75.136504 0.000000 0.000000 0.000000 35.247225 -7.960333 0.063135 44.307105 30.581578 -14.893615 -21.411698 -62.744464 27.243359 0.000000 0.000000 0.000000 
-0.050178 0.531462 -0.120180 -3.257908 -1.223518 24.696429 13.153681 -1.175438 65.893570 -11.505815 -2.688422 -69.173636 -10.442391 16.792572 107.668590 0.000000 0.000000 0.000000 -19.856912 6.875902 62.143280 3.040186 -2.445261 -74.754002 30.695513 -7.739522 100.094250 0.000000 0.000000 0.000000 -3.983854 0.985063 -39.100665 1.700998 2.141985 -79.629987 3.715765 -1.628345 98.669079 -29.948354 -1.907097 -122.201388 0.000000 0.000000 0.000000 -26.377249 17.698375 -6.780178 -46.826804 -9.119941 -24.497011 103.442193 36.862136 81.014716 0.000000 0.000000 0.000000 35.307778 -8.576787 0.193730 44.780081 31.641112 -15.057115 -22.908952 -63.969644 29.989094 0.000000 0.000000 0.000000 
-0.050892 0.531255 -0.119980 -3.242692 -0.705748 24.370234 13.246951 -1.511614 66.135513 -11.283153 -2.719533 -70.382789 -8.602244 17.355226 109.375703 0.000000 0.000000 0.000000 -19.423299 6.367767 62.973889 2.859289 -2.594442 -75.426865 30.667174 -7.909977 100.556254 0.000000 0.000000 0.000000 -4.799802 0.696048 -38.931799 1.852053 2.031393 -81.711211 3.463850 -2.203491 100.781365 -24.118334 -1.412639 -124.021009 0.000000 0.000000 0.000000 -26.158617 18.711957 -7.375377 -47.183300 -7.777912 -25.688082 107.379413 37.102070 87.379913 0.000000 0.000000 0.000000 34.753913 -9.211841 -0.093214 45.260954 32.237849 -15.761400 -26.067249 -64.238024 33.457506 0.000000 0.000000 0.000000 
-0.052617 0.529451 -0.119287 -3.085931 -0.430110 24.011610 13.792109 -2.056664 66.275732 -11.452717 -2.861855 -71.004158 -6.450346 17.884467 110.894760 0.000000 0.000000 0.000000 -19.182194 6.065086 63.331005 2.872773 -2.581921 -75.196657 32.439376 -7.343475 100.655161 0.000000 0.000000 0.000000 -5.505322 0.473355 -38.241031 1.047222 1.761595 -84.453025 3.866604 -3.070580 102.812866 -22.496478 -1.350140 -124.250579 0.000000 0.000000 0.000000 -24.201492 19.878054 -8.325932 -47.876507 -5.763724 -26.850872 108.336802 36.749020 89.372400 0.000000 0.000000 0.000000 34.512573 -9.967561 -0.611216 46.035346 32.642729 -16.307387 -30.499432 -63.782724 37.413125 0.000000 0.000000 0.000000 
